<svg width="500" height="500" version="1.1" xmlns="http://www.w3.org/2000/svg" desc="Created with imagetracer.js version 1.2.6" ><path fill="rgb(0,0,0)" stroke="rgb(0,0,0)" stroke-width="1" opacity="0" d="M 0 0 L 500 0 L 500 500 L 0 500 L 0 0 Z M 223 40 L 218 42 L 210 53 L 196 92 L 185 118 L 185 121 L 169 159 L 169 162 L 131 243 L 124 261 L 125 270 Q 130 275 139 276 L 154 274 L 213 249 L 215 247 L 218 247 L 218 257 L 219 258 L 219 283 L 220 284 L 220 299 L 221 300 L 221 327 L 222 328 L 222 354 L 223 355 L 223 372 L 224 373 L 224 392 L 225 393 L 226 422 L 228 426 L 234 429 L 239 430 L 252 428 L 256 424 L 256 409 L 255 408 L 255 397 L 254 396 L 254 374 L 253 373 L 253 344 L 252 343 L 252 327 L 251 326 L 251 302 L 365 362 L 378 362 L 385 358 L 386 356 L 385 351 L 382 347 L 275 290 Q 280 279 288 272 Q 287 269 290 270 L 294 264 L 315 240 Q 314 237 317 238 L 329 224 Q 328 221 331 222 Q 341 206 356 194 Q 355 191 358 192 L 358 190 L 360 190 L 360 189 L 383 166 L 382 159 Q 378 154 372 153 L 365 153 L 356 156 L 327 171 L 291 187 L 251 208 L 246 209 L 245 206 L 244 166 L 243 165 L 243 148 L 242 147 L 242 46 L 239 42 L 234 40 L 223 40 Z " /><path fill="rgb(0,0,0)" stroke="rgb(0,0,0)" stroke-width="1" opacity="0" d="M 212.5 129 L 213 167.5 L 214 168.5 L 214 191.5 L 215 192.5 L 215 212.5 L 216 213.5 L 216 224 L 171.5 244 L 169.5 246 L 160 249 L 170 224.5 L 194 174.5 L 195 169.5 L 212.5 129 Z " /><path fill="rgb(0,0,0)" stroke="rgb(0,0,0)" stroke-width="1" opacity="0" d="M 318.5 197 L 314 202.5 L 290 229.5 L 285 237 Q 282.3 235.9 283 238.5 L 250.5 278 L 249 274.5 L 249 257.5 L 247 247.5 L 247 231 L 293.5 210 L 318.5 197 Z " /><path fill="rgb(231,158,13)" stroke="rgb(231,158,13)" stroke-width="1" opacity="0.996078431372549" d="M 224.5 41 Q 235.7 39.8 240 45.5 L 241 47.5 L 241 73.5 L 240 74.5 L 240 113.5 L 241 114.5 L 242 178.5 L 243 179.5 L 244 208.5 L 245 211 L 249.5 210 L 261.5 203 L 359.5 156 L 372.5 155 Q 378.3 156.3 381 160.5 L 381 165.5 L 355 191.5 L 313 238.5 L 276 283.5 L 273 290.5 L 372.5 344 L 384 351.5 Q 385 358 380.5 359 Q 375.9 361.9 367.5 361 L 345.5 351 Q 299.8 323.7 250.5 300 L 249 301.5 L 249 312.5 L 250 313.5 L 252 380.5 L 253 381.5 L 253 399.5 L 254 400.5 L 255 421.5 L 251.5 426 Q 246.5 430 235.5 428 L 229 423.5 L 227 416.5 L 226 384.5 L 225 383.5 L 225 368.5 L 224 367.5 L 223 319.5 L 222 318.5 L 222 297.5 L 221 296.5 L 221 275.5 L 220 274.5 L 220 249.5 L 217.5 245 L 203.5 250 L 159.5 270 L 146.5 274 L 136.5 274 Q 129.1 272.9 126 267.5 Q 125 258.5 128 253.5 L 158 190.5 L 167 167.5 L 169 165.5 L 171 157.5 L 178 142.5 L 210 56.5 L 217.5 44 L 224.5 41 Z M 213 126 L 210 130 L 183 196 L 164 235 L 159 247 L 159 251 L 167 249 L 216 226 L 218 223 L 217 222 L 215 158 L 214 157 L 214 127 L 213 126 Z M 320 195 L 246 230 L 245 233 L 246 235 L 246 252 L 247 253 L 248 278 L 249 279 Q 248 281 251 280 L 279 245 L 321 198 Q 322 194 320 195 Z " /><path fill="rgb(243,177,37)" stroke="rgb(243,177,37)" stroke-width="1" opacity="0.3686274509803922" d="M 222.5 40 L 233.5 40 L 238.5 42 L 242 45.5 L 242 146.5 L 243 147.5 L 243 164.5 L 244 165.5 L 245 205.5 L 246 209 L 250.5 208 L 290.5 187 L 326.5 171 L 355.5 156 L 364.5 153 L 371.5 153 Q 378.3 154.3 382 158.5 L 383 165.5 L 360 188.5 L 360 190 L 358 190 L 358 192 Q 355.3 190.9 356 193.5 Q 341.1 206.3 331 222 Q 328.3 220.9 329 223.5 L 317 238 Q 314.3 236.9 315 239.5 L 294 263.5 L 290 270 Q 287.3 268.9 288 271.5 Q 279.6 278.6 275 289.5 L 381.5 347 L 385 350.5 L 386 355.5 L 385 358 L 377.5 362 L 364.5 362 L 251 302 L 251 325.5 L 252 326.5 L 252 342.5 L 253 343.5 L 253 372.5 L 254 373.5 L 254 395.5 L 255 396.5 L 255 407.5 L 256 408.5 L 256 423.5 L 251.5 428 L 238.5 430 L 233.5 429 L 228 426 L 226 421.5 L 225 392.5 L 224 391.5 L 224 372.5 L 223 371.5 L 223 354.5 L 222 353.5 L 222 327.5 L 221 326.5 L 221 299.5 L 220 298.5 L 220 283.5 L 219 282.5 L 219 257.5 L 218 256.5 L 218 247 L 214.5 247 L 212.5 249 L 153.5 274 L 138.5 276 Q 129.9 274.6 125 269.5 L 124 260.5 L 131 242.5 L 169 161.5 L 169 158.5 L 185 120.5 L 185 117.5 L 196 91.5 L 210 52.5 L 217.5 42 L 222.5 40 Z M 225 41 L 218 44 L 210 57 L 178 143 L 171 158 L 169 166 L 167 168 L 158 191 L 128 254 Q 125 259 126 268 Q 129 273 137 274 L 147 274 L 160 270 L 204 250 L 218 245 L 220 250 L 220 275 L 221 276 L 221 297 L 222 298 L 222 319 L 223 320 L 224 368 L 225 369 L 225 384 L 226 385 L 227 417 L 229 424 L 236 428 Q 246 430 252 426 L 255 422 L 254 401 L 253 400 L 253 382 L 252 381 L 250 314 L 249 313 L 249 302 L 251 300 Q 300 324 346 351 L 368 361 Q 376 362 381 359 Q 385 358 384 352 L 373 344 L 273 291 L 276 284 L 313 239 L 355 192 L 381 166 L 381 161 Q 378 156 373 155 L 360 156 L 262 203 L 250 210 L 245 211 L 244 209 L 243 180 L 242 179 L 241 115 L 240 114 L 240 75 L 241 74 L 241 48 L 240 46 Q 236 40 225 41 Z " /><path fill="rgb(243,177,37)" stroke="rgb(243,177,37)" stroke-width="1" opacity="0.3686274509803922" d="M 212.5 126 L 214 126.5 L 214 156.5 L 215 157.5 L 217 221.5 L 218 222.5 L 215.5 226 L 166.5 249 L 159 251 L 159 246.5 L 164 234.5 L 183 195.5 L 210 129.5 L 212.5 126 Z M 213 129 L 195 170 L 194 175 L 170 225 L 160 249 L 170 246 L 172 244 L 216 224 L 216 214 L 215 213 L 215 193 L 214 192 L 214 169 L 213 168 L 213 129 Z " /><path fill="rgb(243,177,37)" stroke="rgb(243,177,37)" stroke-width="1" opacity="0.3686274509803922" d="M 319.5 195 Q 322.1 194.2 321 197.5 L 279 244.5 L 250.5 280 Q 248.3 280.8 249 278.5 L 248 277.5 L 247 252.5 L 246 251.5 L 246 234.5 L 245 232.5 L 246 230 L 319.5 195 Z M 317 198 L 247 231 L 247 248 L 249 258 L 249 275 L 251 278 L 283 239 Q 282 236 285 237 L 290 230 L 318 199 L 317 198 Z " /></svg>